<?xml version="1.0" encoding="UTF-8" standalone="no"?>
<!-- ####################################################################

This file was generates automatically via the 
IconPacks.Browser (MIT-License). 

Visit https://github.com/MahApps/MahApps.Metro.IconPacks and 
https://github.com/MahApps/MahApps.Metro.IconPacks/blob/develop/LICENSE 
for more information.
 
~~~~~~~~~~~~~~~~~~~~~~~~~~~~~~~~~~~~~~~~~~~~~~~~~~~~~~~~~~~~~~~~~~~~~~~~~~
 
Icon-Name: 			Cassette
Iconpack:			Material
Iconpack-Homepage: 	https://materialdesignicons.com/
Iconpack-License:	https://github.com/Templarian/MaterialDesign/blob/master/LICENSE

#####################################################################-->

<svg
   xmlns:dc="http://purl.org/dc/elements/1.1/"
   xmlns:cc="http://creativecommons.org/ns#"
   xmlns:rdf="http://www.w3.org/1999/02/22-rdf-syntax-ns#"
   xmlns:svg="http://www.w3.org/2000/svg"
   xmlns="http://www.w3.org/2000/svg"
   xmlns:sodipodi="http://sodipodi.sourceforge.net/DTD/sodipodi-0.dtd"
   xmlns:inkscape="http://www.inkscape.org/namespaces/inkscape"
   width="16"
   height="16"
   version="1.1"
   id="svg4"
   sodipodi:docname="Material-Cassette.svg"
   inkscape:version="0.92.4 (5da689c313, 2019-01-14)">
  <metadata
     id="metadata10">
    <rdf:RDF>
      <cc:Work
         rdf:about="">
        <dc:format>image/svg+xml</dc:format>
        <dc:type
           rdf:resource="http://purl.org/dc/dcmitype/StillImage" />
        <dc:title></dc:title>
      </cc:Work>
    </rdf:RDF>
  </metadata>
  <defs
     id="defs8" />
  <sodipodi:namedview
     pagecolor="#ffffff"
     bordercolor="#666666"
     borderopacity="1"
     objecttolerance="10"
     gridtolerance="10"
     guidetolerance="10"
     inkscape:pageopacity="0"
     inkscape:pageshadow="2"
     inkscape:window-width="1920"
     inkscape:window-height="1017"
     id="namedview6"
     showgrid="false"
     inkscape:zoom="14.75"
     inkscape:cx="8"
     inkscape:cy="8"
     inkscape:window-x="-8"
     inkscape:window-y="-8"
     inkscape:window-maximized="1"
     inkscape:current-layer="layer1" />
  <g
     inkscape:groupmode="layer"
     id="layer2"
     inkscape:label="穴の色"
     sodipodi:insensitive="true">
    <rect
       style="opacity:1;fill:#ffffff;fill-opacity:1;stroke:#000bff;stroke-width:0.94488192;stroke-miterlimit:4;stroke-dasharray:0.94488189, 0.94488189;stroke-dashoffset:0;stroke-opacity:1"
       id="rect820"
       width="14.169492"
       height="5.8305087"
       x="0.94915253"
       y="4.9491525" />
  </g>
  <g
     inkscape:groupmode="layer"
     id="layer1"
     inkscape:label="テープ"
     style="display:inline"
     sodipodi:insensitive="true">
    <path
       d="M 4,5 A 2,2 0 0 0 2,7 v 10 a 2,2 0 0 0 2,2 h 2 l 1,-2 h 10 l 1,2 h 2 a 2,2 0 0 0 2,-2 V 7 A 2,2 0 0 0 20,5 H 4 m 2.5,5 A 1.5,1.5 0 0 1 8,11.5 1.5,1.5 0 0 1 6.5,13 1.5,1.5 0 0 1 5,11.5 1.5,1.5 0 0 1 6.5,10 M 9,10 h 6 v 3 H 9 v -3 m 8.5,0 A 1.5,1.5 0 0 1 19,11.5 1.5,1.5 0 0 1 17.5,13 1.5,1.5 0 0 1 16,11.5 1.5,1.5 0 0 1 17.5,10 Z"
       style="fill:#00796b;fill-opacity:1;stroke-linejoin:miter"
       transform="matrix(0.8,0,0,0.8,-1.6,-1.6)"
       id="path2"
       inkscape:connector-curvature="0" />
  </g>
</svg>
