<?xml version="1.0" encoding="UTF-8" standalone="no"?>
<!-- ####################################################################

This file was generates automatically via the 
IconPacks.Browser (MIT-License). 

Visit https://github.com/MahApps/MahApps.Metro.IconPacks and 
https://github.com/MahApps/MahApps.Metro.IconPacks/blob/develop/LICENSE 
for more information.
 
~~~~~~~~~~~~~~~~~~~~~~~~~~~~~~~~~~~~~~~~~~~~~~~~~~~~~~~~~~~~~~~~~~~~~~~~~~
 
Icon-Name: 			Cassette
Iconpack:			Material
Iconpack-Homepage: 	https://materialdesignicons.com/
Iconpack-License:	https://github.com/Templarian/MaterialDesign/blob/master/LICENSE

#####################################################################-->

<svg
   xmlns:dc="http://purl.org/dc/elements/1.1/"
   xmlns:cc="http://creativecommons.org/ns#"
   xmlns:rdf="http://www.w3.org/1999/02/22-rdf-syntax-ns#"
   xmlns:svg="http://www.w3.org/2000/svg"
   xmlns="http://www.w3.org/2000/svg"
   xmlns:sodipodi="http://sodipodi.sourceforge.net/DTD/sodipodi-0.dtd"
   xmlns:inkscape="http://www.inkscape.org/namespaces/inkscape"
   width="300"
   height="200"
   version="1.1"
   id="svg4"
   sodipodi:docname="SplashScreen.svg"
   inkscape:version="0.92.4 (5da689c313, 2019-01-14)"
   inkscape:export-filename="C:\Users\kosuke_hirano\source\repos\hirano-aero\AchieveTrack\images\SplashScreen.png"
   inkscape:export-xdpi="144"
   inkscape:export-ydpi="144">
  <title
     id="title834">SplashScreen</title>
  <metadata
     id="metadata10">
    <rdf:RDF>
      <cc:Work
         rdf:about="">
        <dc:format>image/svg+xml</dc:format>
        <dc:type
           rdf:resource="http://purl.org/dc/dcmitype/StillImage" />
        <dc:title>SplashScreen</dc:title>
      </cc:Work>
    </rdf:RDF>
  </metadata>
  <defs
     id="defs8" />
  <sodipodi:namedview
     pagecolor="#ffffff"
     bordercolor="#666666"
     borderopacity="1"
     objecttolerance="10"
     gridtolerance="10"
     guidetolerance="10"
     inkscape:pageopacity="0"
     inkscape:pageshadow="2"
     inkscape:window-width="1920"
     inkscape:window-height="1017"
     id="namedview6"
     showgrid="false"
     inkscape:zoom="2.6074563"
     inkscape:cx="188.73643"
     inkscape:cy="108.71912"
     inkscape:window-x="-8"
     inkscape:window-y="-8"
     inkscape:window-maximized="1"
     inkscape:current-layer="layer1" />
  <g
     inkscape:groupmode="layer"
     id="layer4"
     inkscape:label="背景"
     style="display:inline"
     sodipodi:insensitive="true">
    <rect
       style="opacity:1;fill:#00796b;fill-opacity:1;stroke:#000bff;stroke-width:0.82962006;stroke-miterlimit:4;stroke-dasharray:0.82962007, 0.82962007;stroke-dashoffset:0;stroke-opacity:1"
       id="rect837"
       width="300.06149"
       height="199.99464"
       x="0.0031299279"
       y="0.0075781024" />
  </g>
  <g
     inkscape:groupmode="layer"
     id="layer1"
     inkscape:label="テープ"
     style="display:inline"
     transform="translate(0,184)"
     sodipodi:insensitive="true">
    <path
       d="m 129.2137,-102.21276 a 5.2050462,5.2050462 0 0 0 -5.20505,5.205046 v 26.025231 a 5.2050462,5.2050462 0 0 0 5.20505,5.205046 h 5.20504 l 2.60252,-5.205046 h 26.02524 l 2.60252,5.205046 h 5.20504 a 5.2050462,5.2050462 0 0 0 5.20505,-5.205046 v -26.025231 a 5.2050462,5.2050462 0 0 0 -5.20505,-5.205046 H 129.2137 m 6.5063,13.012616 a 3.9037846,3.9037846 0 0 1 3.90379,3.903783 3.9037846,3.9037846 0 0 1 -3.90379,3.903785 3.9037846,3.9037846 0 0 1 -3.90379,-3.903785 3.9037846,3.9037846 0 0 1 3.90379,-3.903783 m 6.50631,0 h 15.61514 v 7.807568 h -15.61514 v -7.807568 m 22.12145,0 a 3.9037846,3.9037846 0 0 1 3.90378,3.903783 3.9037846,3.9037846 0 0 1 -3.90378,3.903785 3.9037846,3.9037846 0 0 1 -3.90379,-3.903785 3.9037846,3.9037846 0 0 1 3.90379,-3.903783 z"
       style="fill:#f9fffe;fill-opacity:1;stroke-width:2.60252309;stroke-linejoin:miter"
       id="path2"
       inkscape:connector-curvature="0" />
  </g>
</svg>
